{
  "source": "C:\\Users\\Peter\\Desktop\\stuff\\MIUN\\quantitative_research\\video_compression\\videos\\UVG\\ShakeNDry_1920x1080_120fps_420_8bit_YUV.y4m",
  "output": "C:\\Users\\Peter\\Desktop\\stuff\\MIUN\\quantitative_research\\video_compression\\compressed_videos\\UVG\\vp9\\2\\ShakeNDry_1920x1080_120fps_420_8bit_YUV_vp9.webm",
  "codec": "vp9",
  "ok": "[yuv4mpegpipe @ 000002714afd5280] Stream #0: not enough frames to estimate rate; consider increasing probesize\nInput #0, yuv4mpegpipe, from 'C:\\Users\\Peter\\Desktop\\stuff\\MIUN\\quantitative_research\\video_compression\\videos\\UVG\\ShakeNDry_1920x1080_120fps_420_8bit_YUV.y4m':\n  Duration: 00:00:02.50, start: 0.000000, bitrate: 2985989 kb/s\n  Stream #0:0: Video: rawvideo (I420 / 0x30323449), yuv420p(progressive), 1920x1080, 120 fps, 120 tbr, 120 tbn\n[out#0/webm @ 000002714afd8e00] Codec AVOption b:a (set bitrate (in bits/s)) has not been used for any stream. The most likely reason is either wrong type (e.g. a video option with no video streams) or that it is a private option of some decoder which was not actually used for any stream.\nStream mapping:\n  Stream #0:0 -> #0:0 (rawvideo (native) -> vp9 (libvpx-vp9))\nPress [q] to stop, [?] for help\n[libvpx-vp9 @ 000002714afdbf80] v1.15.2-100-g40561f514\nOutput #0, webm, to 'C:\\Users\\Peter\\Desktop\\stuff\\MIUN\\quantitative_research\\video_compression\\compressed_videos\\UVG\\vp9\\2\\ShakeNDry_1920x1080_120fps_420_8bit_YUV_vp9.webm':\n  Metadata:\n    encoder         : Lavf62.3.100\n  Stream #0:0: Video: vp9, yuv420p(tv, progressive), 1920x1080, q=2-31, 2000 kb/s, 120 fps, 1k tbn\n    Metadata:\n      encoder         : Lavc62.11.100 libvpx-vp9\n    Side data:\n      cpb: bitrate max/min/avg: 0/0/0 buffer size: 2000000 vbv_delay: N/A\nframe=    3 fps=0.0 q=60.0 size=       0KiB time=00:00:00.02 bitrate= 153.9kbits/s speed=0.0484x elapsed=0:00:00.51    \nframe=   11 fps= 10 q=59.0 size=       0KiB time=00:00:00.09 bitrate=  42.0kbits/s speed=0.0874x elapsed=0:00:01.04    \nframe=   18 fps= 11 q=59.0 size=       0KiB time=00:00:00.15 bitrate=  25.7kbits/s speed=0.0958x elapsed=0:00:01.56    \nframe=   24 fps= 11 q=59.0 size=       0KiB time=00:00:00.20 bitrate=  19.2kbits/s speed=0.0948x elapsed=0:00:02.11    \nframe=   30 fps= 11 q=59.0 size=       0KiB time=00:00:00.25 bitrate=  15.4kbits/s speed=0.0947x elapsed=0:00:02.63    \nframe=   37 fps= 12 q=59.0 size=       0KiB time=00:00:00.30 bitrate=  12.5kbits/s speed=0.0971x elapsed=0:00:03.17    \nframe=   44 fps= 12 q=59.0 size=       0KiB time=00:00:00.36 bitrate=  10.5kbits/s speed=0.099x elapsed=0:00:03.70    \nframe=   47 fps= 11 q=61.0 size=       0KiB time=00:00:00.39 bitrate=   9.8kbits/s speed=0.0929x elapsed=0:00:04.21    \nframe=   53 fps= 11 q=60.0 size=       0KiB time=00:00:00.44 bitrate=   8.7kbits/s speed=0.0932x elapsed=0:00:04.73    \nframe=   59 fps= 11 q=59.0 size=       0KiB time=00:00:00.49 bitrate=   7.8kbits/s speed=0.0935x elapsed=0:00:05.25    \nframe=   62 fps= 11 q=59.0 size=       0KiB time=00:00:00.51 bitrate=   7.4kbits/s speed=0.0894x elapsed=0:00:05.77    \nframe=   68 fps= 11 q=59.0 size=       0KiB time=00:00:00.56 bitrate=   6.8kbits/s speed=0.0901x elapsed=0:00:06.29    \nframe=   73 fps= 11 q=59.0 size=       0KiB time=00:00:00.60 bitrate=   6.3kbits/s speed=0.0893x elapsed=0:00:06.81    \nframe=   77 fps= 11 q=59.0 size=       0KiB time=00:00:00.64 bitrate=   6.0kbits/s speed=0.0875x elapsed=0:00:07.33    \nframe=   83 fps= 11 q=59.0 size=       0KiB time=00:00:00.69 bitrate=   5.6kbits/s speed=0.0881x elapsed=0:00:07.84    \nframe=   89 fps= 11 q=58.0 size=       0KiB time=00:00:00.74 bitrate=   5.2kbits/s speed=0.0887x elapsed=0:00:08.36    \nframe=   93 fps= 10 q=58.0 size=       0KiB time=00:00:00.77 bitrate=   5.0kbits/s speed=0.0874x elapsed=0:00:08.87    \nframe=   99 fps= 11 q=58.0 size=       0KiB time=00:00:00.82 bitrate=   4.7kbits/s speed=0.0879x elapsed=0:00:09.38    \nframe=  105 fps= 11 q=57.0 size=       0KiB time=00:00:00.87 bitrate=   4.4kbits/s speed=0.0882x elapsed=0:00:09.91    \nframe=  111 fps= 11 q=58.0 size=       0KiB time=00:00:00.92 bitrate=   4.2kbits/s speed=0.0887x elapsed=0:00:10.42    \nframe=  116 fps= 11 q=57.0 size=       0KiB time=00:00:00.96 bitrate=   4.0kbits/s speed=0.0884x elapsed=0:00:10.93    \nframe=  121 fps= 11 q=57.0 size=       0KiB time=00:00:01.00 bitrate=   3.8kbits/s speed=0.0881x elapsed=0:00:11.44    \nframe=  128 fps= 11 q=57.0 size=       0KiB time=00:00:01.06 bitrate=   3.6kbits/s speed=0.0891x elapsed=0:00:11.97    \nframe=  132 fps= 11 q=56.0 size=     252KiB time=00:00:01.10 bitrate=1879.5kbits/s speed=0.0881x elapsed=0:00:12.49    \nframe=  140 fps= 11 q=54.0 size=     252KiB time=00:00:01.16 bitrate=1772.1kbits/s speed=0.0897x elapsed=0:00:13.00    \nframe=  144 fps= 11 q=41.0 size=     252KiB time=00:00:01.20 bitrate=1722.9kbits/s speed=0.0888x elapsed=0:00:13.51    \nframe=  151 fps= 11 q=52.0 size=     252KiB time=00:00:01.25 bitrate=1643.0kbits/s speed=0.0896x elapsed=0:00:14.03    \nframe=  157 fps= 11 q=51.0 size=     252KiB time=00:00:01.30 bitrate=1580.2kbits/s speed=0.0899x elapsed=0:00:14.54    \nframe=  162 fps= 11 q=50.0 size=     252KiB time=00:00:01.35 bitrate=1531.5kbits/s speed=0.0896x elapsed=0:00:15.06    \nframe=  167 fps= 11 q=51.0 size=     252KiB time=00:00:01.39 bitrate=1485.6kbits/s speed=0.0894x elapsed=0:00:15.57    \nframe=  173 fps= 11 q=52.0 size=     252KiB time=00:00:01.44 bitrate=1434.1kbits/s speed=0.0896x elapsed=0:00:16.08    \nframe=  178 fps= 11 q=52.0 size=     252KiB time=00:00:01.48 bitrate=1393.8kbits/s speed=0.0893x elapsed=0:00:16.61    \nframe=  184 fps= 11 q=54.0 size=     252KiB time=00:00:01.53 bitrate=1348.4kbits/s speed=0.0895x elapsed=0:00:17.12    \nframe=  188 fps= 11 q=54.0 size=     252KiB time=00:00:01.56 bitrate=1319.7kbits/s speed=0.0888x elapsed=0:00:17.64    \nframe=  194 fps= 11 q=53.0 size=     252KiB time=00:00:01.61 bitrate=1278.9kbits/s speed=0.089x elapsed=0:00:18.15    \nframe=  200 fps= 11 q=53.0 size=     252KiB time=00:00:01.66 bitrate=1240.5kbits/s speed=0.0892x elapsed=0:00:18.68    \nframe=  205 fps= 11 q=54.0 size=     252KiB time=00:00:01.70 bitrate=1210.2kbits/s speed=0.089x elapsed=0:00:19.19    \nframe=  211 fps= 11 q=54.0 size=     252KiB time=00:00:01.75 bitrate=1175.8kbits/s speed=0.0892x elapsed=0:00:19.70    \nframe=  218 fps= 11 q=54.0 size=     252KiB time=00:00:01.81 bitrate=1138.1kbits/s speed=0.0898x elapsed=0:00:20.22    \nframe=  223 fps= 11 q=52.0 size=     252KiB time=00:00:01.85 bitrate=1112.5kbits/s speed=0.0896x elapsed=0:00:20.74    \nframe=  229 fps= 11 q=51.0 size=     252KiB time=00:00:01.90 bitrate=1083.4kbits/s speed=0.0898x elapsed=0:00:21.24    \nframe=  235 fps= 11 q=54.0 size=     252KiB time=00:00:01.95 bitrate=1055.7kbits/s speed=0.09x elapsed=0:00:21.76    \nframe=  241 fps= 11 q=52.0 size=     252KiB time=00:00:02.00 bitrate=1029.5kbits/s speed=0.0902x elapsed=0:00:22.27    \nframe=  246 fps= 11 q=49.0 size=     252KiB time=00:00:02.05 bitrate=1008.5kbits/s speed=0.0899x elapsed=0:00:22.79    \nframe=  252 fps= 11 q=50.0 size=     252KiB time=00:00:02.10 bitrate= 984.5kbits/s speed=0.0901x elapsed=0:00:23.31    \nframe=  256 fps= 11 q=51.0 size=     252KiB time=00:00:02.13 bitrate= 969.1kbits/s speed=0.0895x elapsed=0:00:23.83    \nframe=  263 fps= 11 q=48.0 size=     256KiB time=00:00:02.19 bitrate= 956.9kbits/s speed=0.09x elapsed=0:00:24.34    \nframe=  269 fps= 11 q=47.0 size=     256KiB time=00:00:02.24 bitrate= 935.5kbits/s speed=0.0902x elapsed=0:00:24.86    \nframe=  274 fps= 11 q=47.0 size=     256KiB time=00:00:02.28 bitrate= 918.5kbits/s speed=0.09x elapsed=0:00:25.37    \nframe=  276 fps= 11 q=47.0 size=     256KiB time=00:00:02.30 bitrate= 911.8kbits/s speed=0.0888x elapsed=0:00:25.89    \nframe=  276 fps= 10 q=47.0 size=     256KiB time=00:00:02.30 bitrate= 911.8kbits/s speed=0.0871x elapsed=0:00:26.40    \nframe=  276 fps= 10 q=47.0 size=     256KiB time=00:00:02.30 bitrate= 911.8kbits/s speed=0.0854x elapsed=0:00:26.91    \nframe=  276 fps= 10 q=47.0 size=     256KiB time=00:00:02.30 bitrate= 911.8kbits/s speed=0.0838x elapsed=0:00:27.44    \n[out#0/webm @ 000002714afd8e00] video:637KiB audio:0KiB subtitle:0KiB other streams:0KiB global headers:0KiB muxing overhead: 0.410313%\nframe=  300 fps= 11 q=31.0 Lsize=     639KiB time=00:00:02.50 bitrate=2094.8kbits/s speed=0.0898x elapsed=0:00:27.84    \n",
  "seconds": 27.994922399520874,
  "probe_out": {}
}